<svg xmlns="http://www.w3.org/2000/svg" version="1.1" xmlns:xlink="http://www.w3.org/1999/xlink" xmlns:svgjs="http://svgjs.dev/svgjs" width="1000" height="1000" viewBox="0 0 1000 1000"><rect width="1000" height="1000" fill="#ffffff"></rect><g transform="matrix(0.7,0,0,0.7,150.0000000000001,106.25)"><svg viewBox="0 0 320 360" data-background-color="#ffffff" preserveAspectRatio="xMidYMid meet" height="1125" width="1000" xmlns="http://www.w3.org/2000/svg" xmlns:xlink="http://www.w3.org/1999/xlink"><g id="tight-bounds" transform="matrix(1,0,0,1,0,0)"><svg viewBox="0 0 320 360" height="360" width="320"><g><svg></svg></g><g><svg viewBox="0 0 320 360" height="360" width="320"><g><path xmlns="http://www.w3.org/2000/svg" d="M20.961 227.22l3.726 4.658-1.863-6.056c-0.466-2.795-3.726 0.466-1.863 1.398M25.153 224.425c1.397 2.329 2.795 4.658 2.795 6.987 0 3.261 2.795 4.658 5.123 5.589-3.261-3.726-5.124-13.974-7.918-12.576M204.017 26.929c7.918 0 15.371-0.932 23.756 0.931 20.495 5.124 37.729 15.371 49.374 29.811l32.606 52.169c1.397 13.042 4.192 27.482 3.726 43.319 3.261 0 2.795-4.658 6.521-5.59-3.726 9.316-5.59 20.961-6.521 34.469-2.329-7.453 0-18.632 0.466-24.687-3.261 5.124-5.124 1.397-5.124-0.932 0.466-3.726-1.397-3.261-2.795-4.658-5.124-4.658-8.384-9.782-12.11-17.7 2.329-6.055 2.795-14.905-4.658-19.563-2.329-1.397-5.124-3.726-6.521-7.453-1.863-5.124-5.124-11.179-4.193-19.097 0.466-2.329-6.987 5.124-11.179 1.863-18.166-12.576-36.332-27.016-58.224-39.127-11.645 0-20.029-4.192-24.221-9.316-3.726-4.658-0.932-10.713 4.658-11.179 3.261 0 6.987-0.932 9.782 0.932 0.466-1.863 2.329-4.192 4.657-4.192M157.904 16.215l0.932 0.466c4.658 0.932 6.987 7.453 12.11 5.124 0 3.261 0.466 6.521-0.466 8.85-1.397 3.726-5.59 3.726-8.85 3.726-31.208-1.863-49.374 11.179-68.471 22.358-5.124 3.261-10.713 5.59-14.906 9.782-20.029 18.632-41.921 35.866-47.045 70.335l-4.192 38.195c-0.466 4.192-5.124 8.384-4.192 13.508l3.26 22.824c-3.261-3.261-5.124 0.932-4.192 2.795 0.466 1.397 2.329 6.055 5.124 1.863 3.726 6.987 7.453 20.495 12.576 26.55 15.837 18.632 36.332 35.4 53.101 52.169 4.192-0.932 7.453-0.932 8.384-3.727 1.397 2.795-1.397 5.59-3.726 6.056 7.453 4.658 15.837 8.85 27.016 9.781 14.44 0.932 27.948 3.261 40.524 6.522 6.521-1.863 13.042-2.795 20.029-3.261 2.329 0 3.726-3.726 6.521-4.658l0.466-4.658c2.795 4.192 2.329-1.397 0.466-4.192 3.261 2.795 4.192 5.124 5.589 6.987 0-1.397 3.726-6.521 3.727-0.466l0.931-6.055c1.397-0.932 1.863 5.124 3.261 0.931 1.397-4.192 4.192-0.932 6.987-2.329-0.932 1.863-0.466 5.59 2.794 3.261l3.727-3.261c2.329 5.59 6.055 3.261 7.918 2.329 20.495-13.042 40.99-28.413 60.553-43.784l-0.466 6.055 2.329-7.453c2.329 2.329 4.192 0.466 5.124-0.931 2.795-4.658 6.521-9.316 12.577-13.508-7.453 20.029-16.303 35.866-27.482 48.908l-4.658 5.59c0 3.261-0.932 7.453-4.658 7.918-1.863 0.466-5.59-0.932-8.384 1.863-1.397 1.863 3.261 5.59-0.466 2.795-3.261-2.329-6.521 0-10.248 0.932-2.795 0.932 1.863 3.726 2.795 5.589 0.932 1.863 1.863 3.726 1.398 6.056l-5.124-5.59c-6.055 3.261-9.782 9.316-14.906 13.974-2.329 1.863-1.397 5.124-1.397 7.918-3.261 0-6.987-0.932-8.85 0.932-1.397 1.863-0.932 4.658-0.932 7.453-4.658-0.466-5.124-7.453-9.315-6.056-4.192 0.932-8.85 1.397-12.577 3.727 2.795 5.59-4.658 2.329-3.726 3.26-6.987-4.192-13.042-7.453-20.495-4.658-15.837-5.124-35.4-2.795-49.84-0.931 0-2.329 0.466-4.658-0.466-5.124-0.932 2.329-3.726 1.397-3.26 1.397-8.85-6.055-17.7-9.782-27.016-14.905-8.384 0.932-16.303-3.261-18.632-5.59-6.521-6.055-13.974-2.795-20.029-4.192-13.042-3.261-17.7-16.769-19.098-26.084-0.932-4.658-4.658-6.521-6.055-6.056-6.055-19.563-15.371-37.263-22.824-55.429-1.863-4.658-1.397-9.316-1.397-14.44 2.329 0.932 4.658 0.466 4.192-2.794-2.329-15.371-7.918-27.016-13.974-38.195 3.261-15.837 3.726-34.469 11.179-48.443 6.521-12.576 18.632-19.098 27.016-29.811 2.795-3.726 2.795-8.85 5.59-12.11 9.316-9.316 18.632-19.098 28.879-27.482 4.658-3.726 10.247 0 17.234-1.397 2.329-8.384 11.645-15.837 20.495-13.508 3.726 0.932 11.179-8.85 13.508-9.782 3.726-1.397 1.863 3.726 1.863 6.987 8.85-6.987 20.961-10.713 32.14-14.906" fill="#093d65" fill-rule="nonzero" stroke="none" stroke-width="1" stroke-linecap="butt" stroke-linejoin="miter" stroke-miterlimit="10" stroke-dasharray="" stroke-dashoffset="0" font-family="none" font-weight="none" font-size="none" text-anchor="none" style="mix-blend-mode: normal" data-fill-palette-color="tertiary"></path></g><g transform="matrix(1,0,0,1,64,133.665765636099)"><svg viewBox="0 0 192 92.66846872780202" height="92.66846872780202" width="192"><g><svg viewBox="0 0 192 92.66846872780202" height="92.66846872780202" width="192"><g><svg viewBox="0 0 192 92.66846872780202" height="92.66846872780202" width="192"><g transform="matrix(1,0,0,1,0,56.01053568558951)"><svg viewBox="0 0 192 36.65793304221251" height="36.65793304221251" width="192"><g><svg viewBox="0 0 192 36.65793304221251" height="36.65793304221251" width="192"><g><svg viewBox="0 0 192 36.65793304221251" height="36.65793304221251" width="192"><g transform="matrix(1,0,0,1,0,0)"><svg width="192" viewBox="4.449999809265137 -38.849998474121094 206.0800018310547 39.349998474121094" height="36.65793304221251" data-palette-color="#093d65"><path d="M32.7 0L25.95 0Q24.2-2.25 22.6-4.3 21-6.35 19.45-8.4 17.9-10.45 16.32-12.55 14.75-14.65 13-16.9L13-16.9Q12.35-16.2 11.75-15.63 11.15-15.05 10.45-14.45L10.45-14.45Q10.45-10.6 10.48-7.23 10.5-3.85 10.5 0L10.5 0 4.45 0 4.45-36.25 10.5-36.25 10.5-22.7Q10.5-22.25 10.43-21.83 10.35-21.4 10.35-20.95L10.35-20.95Q10.6-21.3 10.85-21.58 11.1-21.85 11.35-22.25L11.35-22.25Q14.9-25.6 18.2-29.23 21.5-32.85 25.05-36.25L25.05-36.25 32-36.25Q28.25-32.35 24.58-28.4 20.9-24.45 17.15-20.55L17.15-20.55Q19.25-17.85 21.18-15.33 23.1-12.8 24.98-10.3 26.85-7.8 28.75-5.25 30.65-2.7 32.7 0L32.7 0ZM34.55-28.9L34.55-28.9Q34.55-30.1 35.42-30.9 36.3-31.7 37.3-31.7L37.3-31.7Q38.3-31.7 39.15-30.9 40-30.1 40-28.9L40-28.9Q40-27.7 39.15-26.93 38.3-26.15 37.3-26.15L37.3-26.15Q36.3-26.15 35.42-26.93 34.55-27.7 34.55-28.9ZM39.35-20.9L39.35 0 35.1 0 35.1-20.9 39.35-20.9ZM47.15-20.85L47.15-30.1 51.4-30.1 51.4-20.85 57-20.85 57-17.05 51.4-17.05 51.4 0 47.15 0 47.15-17.05 43.4-17.05 43.4-20.85 47.15-20.85ZM58.64-10.25L58.64-10.25Q58.64-12.55 59.52-14.58 60.39-16.6 61.89-18.13 63.39-19.65 65.37-20.55 67.34-21.45 69.59-21.45L69.59-21.45Q71.09-21.45 72.34-21.08 73.59-20.7 74.49-20.15 75.39-19.6 75.94-19 76.49-18.4 76.69-17.95L76.69-17.95 76.89-20.9 80.99-20.9 80.99 0 76.69 0 76.69-2.65Q76.44-2.25 75.89-1.7 75.34-1.15 74.47-0.68 73.59-0.2 72.39 0.15 71.19 0.5 69.64 0.5L69.64 0.5Q67.24 0.5 65.22-0.38 63.19-1.25 61.74-2.73 60.29-4.2 59.47-6.15 58.64-8.1 58.64-10.25ZM62.94-10.5L62.94-10.5Q62.94-9.05 63.47-7.8 63.99-6.55 64.89-5.65 65.79-4.75 67.04-4.23 68.29-3.7 69.79-3.7L69.79-3.7Q71.29-3.7 72.57-4.23 73.84-4.75 74.77-5.68 75.69-6.6 76.19-7.83 76.69-9.05 76.69-10.5L76.69-10.5Q76.69-11.95 76.19-13.18 75.69-14.4 74.77-15.3 73.84-16.2 72.57-16.73 71.29-17.25 69.79-17.25L69.79-17.25Q68.29-17.25 67.04-16.73 65.79-16.2 64.89-15.3 63.99-14.4 63.47-13.18 62.94-11.95 62.94-10.5ZM109.34-10.4L109.34-10.4Q109.34-8.05 108.54-6.05 107.74-4.05 106.29-2.6 104.84-1.15 102.82-0.33 100.79 0.5 98.39 0.5L98.39 0.5Q97.14 0.5 96.02 0.23 94.89-0.05 93.94-0.53 92.99-1 92.29-1.58 91.59-2.15 91.24-2.75L91.24-2.75Q91.24-2.5 91.27-2.23 91.29-1.95 91.29-1.7L91.29-1.7 91.29 0 86.99 0 86.99-38.85 91.29-38.85 91.29-17.85Q91.69-18.45 92.37-19.07 93.04-19.7 93.97-20.23 94.89-20.75 96.04-21.1 97.19-21.45 98.59-21.45L98.59-21.45Q100.99-21.45 102.97-20.68 104.94-19.9 106.37-18.48 107.79-17.05 108.57-15 109.34-12.95 109.34-10.4ZM104.69-10.5L104.69-10.5Q104.69-11.95 104.24-13.18 103.79-14.4 102.94-15.3 102.09-16.2 100.89-16.73 99.69-17.25 98.19-17.25L98.19-17.25Q96.69-17.25 95.42-16.73 94.14-16.2 93.24-15.3 92.34-14.4 91.82-13.18 91.29-11.95 91.29-10.5L91.29-10.5Q91.29-9.05 91.82-7.8 92.34-6.55 93.24-5.65 94.14-4.75 95.42-4.23 96.69-3.7 98.19-3.7L98.19-3.7Q99.69-3.7 100.89-4.23 102.09-4.75 102.94-5.68 103.79-6.6 104.24-7.83 104.69-9.05 104.69-10.5ZM146.54-7.55L148.84-2.6Q148.24-2.15 147.16-1.63 146.09-1.1 144.64-0.65 143.19-0.2 141.41 0.1 139.64 0.4 137.64 0.4L137.64 0.4Q133.39 0.4 130.01-1.07 126.64-2.55 124.29-5.05 121.94-7.55 120.69-10.85 119.44-14.15 119.44-17.85L119.44-17.85Q119.44-21.95 120.91-25.4 122.39-28.85 124.94-31.35 127.49-33.85 130.91-35.25 134.34-36.65 138.19-36.65L138.19-36.65Q139.64-36.65 141.14-36.45 142.64-36.25 143.96-35.9 145.29-35.55 146.31-35.08 147.34-34.6 147.89-34.1L147.89-34.1Q147.49-33.5 147.26-33.1 147.04-32.7 146.79-32.27 146.54-31.85 146.24-31.3 145.94-30.75 145.44-29.85L145.44-29.85Q144.79-30.3 143.91-30.6 143.04-30.9 142.09-31.1 141.14-31.3 140.16-31.4 139.19-31.5 138.39-31.5L138.39-31.5Q135.49-31.5 133.01-30.43 130.54-29.35 128.74-27.53 126.94-25.7 125.91-23.3 124.89-20.9 124.89-18.3L124.89-18.3Q124.89-15.75 125.86-13.4 126.84-11.05 128.56-9.2 130.29-7.35 132.71-6.25 135.14-5.15 138.04-5.15L138.04-5.15Q139.59-5.15 141.04-5.45 142.49-5.75 143.66-6.15 144.84-6.55 145.61-6.95 146.39-7.35 146.54-7.55L146.54-7.55ZM156.68-38.85L156.68 0 152.43 0 152.43-38.85 156.68-38.85ZM182.18-20.9L182.18 0.45 178.58 0.45 178.08-5.35Q176.93-2.8 174.86-1.15 172.78 0.5 169.58 0.5L169.58 0.5Q166.38 0.5 164.51-1.23 162.63-2.95 162.53-5.75L162.53-5.75 162.53-20.9 166.78-20.9 166.78-7.65Q166.88-6.1 167.91-5 168.93-3.9 171.08-3.75L171.08-3.75Q172.58-3.75 173.83-4.28 175.08-4.8 175.98-5.7 176.88-6.6 177.38-7.85 177.88-9.1 177.88-10.6L177.88-10.6 177.88-20.9 182.18-20.9ZM210.53-10.4L210.53-10.4Q210.53-8.05 209.73-6.05 208.93-4.05 207.48-2.6 206.03-1.15 204-0.33 201.98 0.5 199.58 0.5L199.58 0.5Q198.33 0.5 197.2 0.23 196.08-0.05 195.13-0.53 194.18-1 193.48-1.58 192.78-2.15 192.43-2.75L192.43-2.75Q192.43-2.5 192.45-2.23 192.48-1.95 192.48-1.7L192.48-1.7 192.48 0 188.18 0 188.18-38.85 192.48-38.85 192.48-17.85Q192.88-18.45 193.55-19.07 194.23-19.7 195.15-20.23 196.08-20.75 197.23-21.1 198.38-21.45 199.78-21.45L199.78-21.45Q202.18-21.45 204.15-20.68 206.13-19.9 207.55-18.48 208.98-17.05 209.75-15 210.53-12.95 210.53-10.4ZM205.88-10.5L205.88-10.5Q205.88-11.95 205.43-13.18 204.98-14.4 204.13-15.3 203.28-16.2 202.08-16.73 200.88-17.25 199.38-17.25L199.38-17.25Q197.88-17.25 196.6-16.73 195.33-16.2 194.43-15.3 193.53-14.4 193-13.18 192.48-11.95 192.48-10.5L192.48-10.5Q192.48-9.05 193-7.8 193.53-6.55 194.43-5.65 195.33-4.75 196.6-4.23 197.88-3.7 199.38-3.7L199.38-3.7Q200.88-3.7 202.08-4.23 203.28-4.75 204.13-5.68 204.98-6.6 205.43-7.83 205.88-9.05 205.88-10.5Z" opacity="1" transform="matrix(1,0,0,1,0,0)" fill="#093d65" class="undefined-text-0" data-fill-palette-color="primary" id="text-0"></path></svg></g></svg></g></svg></g></svg></g><g transform="matrix(1,0,0,1,73.57631598759008,0)"><svg viewBox="0 0 44.84736802481983 50.661263464337694" height="50.661263464337694" width="44.84736802481983"><g><svg xmlns="http://www.w3.org/2000/svg" xmlns:xlink="http://www.w3.org/1999/xlink" version="1.1" x="0" y="0" viewBox="6.890999794006348 1.1219940185546875 85.82400512695312 96.95000457763672" enable-background="new 0 0 100 100" xml:space="preserve" height="50.661263464337694" width="44.84736802481983" class="icon-icon-0" data-fill-palette-color="accent" id="icon-0"><g fill="#f98e54" data-fill-palette-color="accent"><path fill="#f98e54" d="M64.008 72.381c4.002-3.149 12.23-11.582 15.089-21.179-6.511-8.01-33.912-42.187-40.238-50.08C38.212 8.613 31.63 24.377 20.21 29.646c-5.247 2.56-10.477 4.156-12.467 4.721l39.077 47.32C51.235 80.263 59.958 75.56 64.008 72.381z" data-fill-palette-color="accent"></path><g fill="#f98e54" data-fill-palette-color="accent"><g fill="#f98e54" data-fill-palette-color="accent"><path fill="#f98e54" d="M90.405 75.352c-6.5 3.781-13.381 7.281-20.674 9.929-8.632 3.134-19.05 6.681-22.386 7.664v5.127l43.046-15.479L90.405 75.352z" data-fill-palette-color="accent"></path><polygon fill="#f98e54" points="6.891,35.865 6.891,50.088 45.703,97.945 45.736,82.902    " data-fill-palette-color="accent"></polygon></g><path fill="#f98e54" d="M88.717 70.42c-5.018 3.936-11.386 7.921-18.278 11.363-6.521 3.266-20.879 7.668-23.093 8.339v1.144c3.686-1.09 13.036-3.898 21.237-7.013 9.104-3.457 22.12-11.628 22.12-11.628L88.717 70.42z" data-fill-palette-color="accent"></path></g><path fill="#f98e54" d="M80.877 50.835l-0.114 0.403c-2.851 10.142-11.25 18.858-15.762 22.409-4.225 3.319-13.009 8.054-17.655 9.561v2.168c6.53-2.034 15.656-6.36 20.721-9.922 8.699-6.128 17.195-14.63 22.419-22.404l0.047 0.036C84.648 46.442 51.938 9.001 49.818 6.309c-0.719 1.357-1.368 2.265-2.422 2.887 10.832 13.508 28.598 35.647 33.217 41.314L80.877 50.835z" data-fill-palette-color="accent"></path><path fill="#f98e54" d="M87.321 59.925c0 0-11.588 12.1-18.328 16.846-5.696 4.008-14.5 7.942-21.647 10.168v1.498c0.692-0.212 1.838-0.566 3.268-1.021 5.266-1.677 14.41-4.722 19.106-7.072 9.305-4.648 17.623-10.274 22.834-15.386 0.054-0.053 0.106-0.106 0.161-0.16L87.321 59.925z" data-fill-palette-color="accent"></path></g></svg></g></svg></g><g></g></svg></g></svg></g></svg></g></svg></g><defs></defs></svg><rect width="320" height="360" fill="none" stroke="none" visibility="hidden"></rect></g></svg></g></svg>